<svg width="326" height="55" viewBox="0 0 326 55" fill="none" xmlns="http://www.w3.org/2000/svg">
<g filter="url(#filter0_b_2398_876)">
<rect x="1.08252" y="1.31479" width="73.9992" height="53.0018" fill="#F7F7F5" fill-opacity="0.05"/>
</g>
<path d="M13.5164 12.2179C14.5383 12.2166 15.5415 12.4869 16.4192 13.0001C17.2559 13.593 17.346 14.7914 17.346 15.6367V39.467C17.3683 39.9872 17.2919 40.5069 17.1207 40.9998C16.8578 41.5861 16.4055 42.0715 15.8334 42.3811C15.1144 42.732 14.3195 42.9073 13.5164 42.892V43.3525H20.4483V15.5988C20.4389 15.0856 20.5239 14.5749 20.6993 14.0913C20.9635 13.5057 21.4155 13.0207 21.9866 12.7099C22.7158 12.3389 23.5272 12.1504 24.3488 12.1611V11.7007H13.5164V12.2179Z" fill="#121C30"/>
<path d="M36.0436 36.3509L35.4 38.2054C34.1127 41.9458 31.4803 42.7784 29.485 42.81V43.384H36.0436L37.2665 36.3572L36.0436 36.3509Z" fill="#121C30"/>
<path d="M58.3328 25.3376C58.1098 25.981 57.6511 26.5205 57.0455 26.8515C56.6722 27.0659 56.0672 27.2615 54.2972 27.3182V27.7535C55.3174 27.7274 56.3288 27.9438 57.245 28.3842C57.9595 28.8131 58.3778 29.6458 58.5323 30.8253H59.4913V24.2086H58.5709C58.5358 24.5926 58.4559 24.9714 58.3328 25.3376Z" fill="#121C30"/>
<path d="M62.4327 11.7572H56.64V12.2366C58.2362 12.2366 59.3819 12.6213 60.1414 13.3656C60.6177 13.8324 60.991 14.6839 61.3579 16.1284L61.7891 17.8819H63.0764L62.4327 11.7572Z" fill="#121C30"/>
<path d="M48.3307 40.4382C48.1822 39.7543 48.1153 39.0558 48.1311 38.3567V11.7573H41.1927V12.2241C42.0716 12.23 42.9356 12.4466 43.7094 12.8548C44.169 13.1608 44.5362 13.5821 44.7729 14.0748C45.0095 14.5674 45.1068 15.1133 45.0546 15.6554V39.4794C45.0623 39.9437 45.0148 40.4073 44.913 40.8608C44.7315 41.4753 44.3231 42.0014 43.7673 42.3368C43.4069 42.5891 42.8147 42.8414 41.1927 42.9171V43.3776H52.8683V42.8477C51.0726 42.7279 50.3903 42.5134 49.9913 42.299C49.5944 42.1238 49.2406 41.867 48.9541 41.5459C48.6676 41.2248 48.4549 40.847 48.3307 40.4382Z" fill="#121C30"/>
<path d="M76.5927 55.11H0V0H76.5927V55.11ZM1.37738 53.7602H75.2154V1.36876H1.37738V53.7602Z" fill="#121C30"/>
<path d="M110.133 34.0173C109.716 34.5033 109.18 34.8768 108.575 35.1022C107.609 35.3458 106.611 35.4457 105.614 35.3986H104.269C103.563 35.4379 102.854 35.3956 102.158 35.2725C101.946 35.2022 101.768 35.0587 101.656 34.8688C101.466 34.3826 101.389 33.8612 101.431 33.3423V22.0327C101.379 21.3483 101.454 20.6605 101.649 20.0016C101.832 19.6869 102.115 19.439 102.454 19.2952C103.114 19.0662 103.816 18.9759 104.514 19.0303V18.532H96.1914V19.0303H96.8737C97.1642 19.0097 97.4559 19.0515 97.7282 19.1528C98.0006 19.2542 98.2471 19.4125 98.4506 19.6169C98.708 19.9028 98.8368 20.6051 98.8368 21.7236V33.336C98.9047 34.0121 98.8031 34.6942 98.5407 35.3229C98.353 35.5781 98.1003 35.7806 97.8077 35.9101C97.5152 36.0396 97.1931 36.0916 96.8737 36.0609H96.1914V36.5592H110.409L111.993 31.6582L111.555 31.5699C111.211 32.4519 110.731 33.2772 110.133 34.0173Z" fill="#121C30"/>
<path d="M120.437 19.0241H121.081C121.517 19.0261 121.945 19.1391 122.323 19.3521C122.567 19.4777 122.763 19.6767 122.883 19.9197C123.035 20.5088 123.093 21.1172 123.057 21.7237V33.3551C123.057 34.4442 122.945 35.1254 122.722 35.3987C122.519 35.6249 122.263 35.8002 121.976 35.9099C121.69 36.0196 121.38 36.0606 121.074 36.0295H120.431V36.5278H128.309V36.0295H127.665C127.237 36.0306 126.816 35.9242 126.442 35.7204C126.189 35.6012 125.985 35.401 125.863 35.1527C125.712 34.5592 125.653 33.9468 125.689 33.3361V21.7174C125.689 20.6409 125.805 19.9597 126.037 19.6737C126.238 19.4503 126.491 19.2767 126.774 19.1671C127.057 19.0575 127.362 19.0149 127.665 19.043H128.309V18.5447H120.437V19.0241Z" fill="#121C30"/>
<path d="M150.218 19.024C150.292 19.0421 150.368 19.0526 150.444 19.0555C150.922 19.1024 151.378 19.2769 151.763 19.5601C151.877 19.647 151.971 19.7566 152.038 19.8816C152.106 20.0066 152.146 20.1443 152.156 20.2855C152.058 21.0291 151.84 21.7529 151.512 22.4301L147.167 32.8693L142.488 22.2976C142.162 21.6508 141.955 20.9525 141.877 20.235C141.873 20.0844 141.905 19.9349 141.97 19.7982C142.034 19.6615 142.13 19.5412 142.25 19.4466C142.754 19.1661 143.324 19.0183 143.904 19.0177V18.5193H136.451V19.0177C136.91 19.0401 137.361 19.1426 137.783 19.3204C138.107 19.4694 138.394 19.6845 138.626 19.9512C138.904 20.4285 139.139 20.9287 139.328 21.4461L146.228 36.9755H146.749L153.185 21.6543C153.465 20.9078 153.904 20.2284 154.473 19.661C154.895 19.3215 155.405 19.1032 155.947 19.0303V18.532H150.289L150.218 19.024Z" fill="#121C30"/>
<path d="M164.082 19.0241H164.726C165.162 19.0266 165.59 19.1396 165.968 19.3521C166.212 19.4777 166.408 19.6767 166.528 19.9197C166.678 20.5092 166.736 21.1173 166.702 21.7237V33.3551C166.702 34.4442 166.592 35.1254 166.373 35.3987C166.17 35.6249 165.914 35.8002 165.628 35.9099C165.341 36.0196 165.032 36.0606 164.726 36.0295H164.082V36.5278H171.96V36.0295H171.317C170.889 36.0303 170.468 35.9239 170.094 35.7204C169.841 35.6008 169.636 35.4007 169.514 35.1527C169.366 34.5588 169.308 33.9467 169.341 33.3361V21.7174C169.341 20.6451 169.457 19.9639 169.688 19.6737C169.89 19.4503 170.142 19.2767 170.425 19.1671C170.708 19.0575 171.014 19.0149 171.317 19.043H171.96V18.5447H164.082V19.0241Z" fill="#121C30"/>
<path d="M193.091 19.0239H193.735C194.027 18.9985 194.321 19.0362 194.597 19.1343C194.873 19.2324 195.123 19.3885 195.331 19.5916C195.588 19.8649 195.717 20.5504 195.717 21.6479V32.0492L184.44 18.5256H179.446V19.0239C179.846 19.0078 180.247 19.0482 180.637 19.1438C181.068 19.2663 181.478 19.4512 181.853 19.6925C182.298 20.0534 182.706 20.457 183.069 20.8973V33.4306C183.135 34.0922 183.033 34.7593 182.773 35.3734C182.576 35.6136 182.321 35.8017 182.031 35.9207C181.741 36.0397 181.426 36.0857 181.113 36.0546H180.469V36.5529H186.86V36.0546H186.217C185.929 36.0775 185.64 36.0405 185.368 35.9459C185.097 35.8513 184.848 35.7013 184.64 35.5058C184.395 35.2283 184.273 34.5407 184.273 33.4306V22.3417L196.393 36.8493H196.882V21.6542C196.819 20.9947 196.92 20.3301 197.178 19.7177C197.372 19.477 197.624 19.2878 197.912 19.1677C198.2 19.0475 198.514 19.0003 198.826 19.0302H199.469V18.5319H193.091V19.0239Z" fill="#121C30"/>
<path d="M219.577 26.713V27.2302C220.103 27.1971 220.631 27.2701 221.128 27.4447C221.408 27.5782 221.635 27.8004 221.771 28.0755C221.955 28.6502 222.027 29.2535 221.984 29.8542V35.0517C221.4 35.3808 220.775 35.6332 220.124 35.8023C219.483 35.9693 218.823 36.052 218.161 36.0483C216.962 36.0379 215.791 35.6969 214.781 35.0644C213.597 34.308 212.67 33.2233 212.117 31.9484C211.432 30.474 211.089 28.869 211.113 27.2492C211.059 25.3176 211.588 23.4134 212.632 21.7741C213.2 20.9019 213.994 20.192 214.932 19.7159C215.869 19.2397 216.919 19.0141 217.974 19.0618C218.746 19.0339 219.516 19.1561 220.239 19.4213C220.963 19.6865 221.626 20.0896 222.19 20.6072C223.063 21.5163 223.701 22.6173 224.05 23.8178H224.52L224.05 18.1409H223.541C223.556 18.461 223.483 18.7792 223.329 19.0618C223.278 19.1333 223.211 19.1917 223.133 19.2324C223.054 19.273 222.967 19.2945 222.878 19.2952C222.528 19.2476 222.186 19.1543 221.861 19.0177C221.116 18.7243 220.35 18.4819 219.57 18.2923C217.321 17.8875 214.998 18.241 212.979 19.2952C211.481 20.186 210.24 21.4367 209.372 22.9291C208.505 24.4214 208.041 26.1059 208.023 27.8232C207.993 29.9337 208.725 31.9868 210.089 33.6199C211.934 35.8528 214.631 36.9693 218.18 36.9693C219.318 36.9819 220.454 36.8526 221.559 36.5845C222.629 36.3024 223.66 35.8936 224.629 35.3671V29.8542C224.581 29.1958 224.67 28.5346 224.893 27.9115C225.046 27.6755 225.263 27.4861 225.52 27.3646C225.777 27.2431 226.064 27.1944 226.348 27.2239H226.682V26.7067L219.577 26.713Z" fill="#121C30"/>
<path d="M245.097 18.526V19.0243H245.74C246.177 19.0236 246.606 19.1368 246.983 19.3523C247.226 19.4779 247.423 19.6769 247.543 19.92C247.694 20.5091 247.752 21.1175 247.716 21.724V33.3553C247.716 34.4402 247.607 35.1214 247.388 35.399C247.185 35.6251 246.929 35.8004 246.642 35.9101C246.356 36.0198 246.046 36.0608 245.74 36.0297H245.097V36.528H252.949V36.0297H252.305C251.872 36.0288 251.445 35.9226 251.063 35.7206C250.81 35.6006 250.606 35.4006 250.484 35.153C250.336 34.559 250.277 33.947 250.31 33.3363V27.6595H253.651C254.131 27.6316 254.611 27.7137 255.054 27.8991C255.372 28.0613 255.631 28.3172 255.794 28.6308C256 29.1219 256.09 29.6524 256.058 30.1825H256.56V24.1209H256.058C256.045 24.8366 255.797 25.5291 255.35 26.0952C254.871 26.4668 254.266 26.645 253.657 26.5935H250.317V19.5541H254.378C255.095 19.5221 255.811 19.6139 256.495 19.8253C256.951 20.0018 257.348 20.2988 257.641 20.6832C258.027 21.2423 258.305 21.8668 258.459 22.525H258.948L258.742 18.526H245.097Z" fill="#121C30"/>
<path d="M267.939 19.0239H268.583C269.019 19.0259 269.447 19.1389 269.825 19.3519C270.069 19.4775 270.265 19.6765 270.385 19.9196C270.536 20.5088 270.595 21.1171 270.559 21.7236V33.3549C270.559 34.4398 270.45 35.121 270.224 35.3986C270.021 35.6239 269.767 35.7986 269.481 35.9082C269.196 36.0179 268.888 36.0594 268.583 36.0293H267.939V36.5277H275.817V36.0293H275.174C274.746 36.0304 274.325 35.924 273.951 35.7203C273.697 35.6015 273.493 35.4012 273.372 35.1526C273.221 34.5591 273.162 33.9466 273.198 33.336V21.7173C273.198 20.645 273.314 19.9637 273.545 19.6736C273.747 19.4501 273.999 19.2765 274.282 19.1669C274.565 19.0573 274.871 19.0148 275.174 19.0428H275.817V18.5445H267.939V19.0239Z" fill="#121C30"/>
<path d="M297.753 32.9449L293.955 27.7537C295.245 27.5552 296.437 26.9611 297.36 26.057C298.082 25.2674 298.475 24.2408 298.461 23.1807C298.481 22.2008 298.135 21.2474 297.489 20.4999C296.886 19.7652 296.079 19.2175 295.165 18.923C293.75 18.5881 292.295 18.4459 290.84 18.5004H284.146V18.9987H284.848C285.135 18.9788 285.424 19.021 285.693 19.1223C285.962 19.2237 286.205 19.3817 286.405 19.5853C286.663 19.8565 286.791 20.563 286.791 21.6921V33.3549C286.857 34.0189 286.762 34.6887 286.515 35.3103C286.326 35.5641 286.073 35.7655 285.781 35.8948C285.488 36.0242 285.167 36.0771 284.848 36.0483H284.146V36.5466H292.024V36.0483H291.31C291.025 36.068 290.739 36.0256 290.473 35.9242C290.207 35.8228 289.968 35.6648 289.771 35.4617C289.514 35.1883 289.385 34.4861 289.385 33.3549V28.1196H289.797H290.19C290.469 28.1196 290.842 28.109 291.31 28.088L297.527 36.515H302.432V36.0167C301.569 35.9607 300.732 35.708 299.986 35.2787C299.107 34.6362 298.35 33.8461 297.753 32.9449ZM290.138 27.268H289.385V19.7998C290.082 19.6539 290.791 19.5715 291.503 19.5538C292.029 19.5297 292.554 19.6113 293.047 19.7936C293.539 19.9758 293.989 20.2548 294.367 20.6134C294.723 20.9739 295 21.4012 295.182 21.8695C295.365 22.3378 295.449 22.8374 295.429 23.3384C295.439 23.8795 295.323 24.4158 295.09 24.9066C294.857 25.3973 294.513 25.8295 294.084 26.1705C293.204 26.9232 291.889 27.2996 290.138 27.2996V27.268Z" fill="#121C30"/>
<path d="M325.133 32.0367C324.693 32.9448 324.116 33.7826 323.421 34.5219C323.037 34.8978 322.57 35.1826 322.056 35.3545C321.317 35.5263 320.557 35.5984 319.797 35.569H316.669C316.321 35.5975 315.97 35.5457 315.646 35.4176C315.475 35.3254 315.34 35.1816 315.259 35.0076C315.152 34.5296 315.113 34.0392 315.144 33.5506V27.6087H319.186C319.769 27.5757 320.353 27.666 320.898 27.8737C321.238 28.0252 321.519 28.2823 321.696 28.6053C321.898 29.1481 322.028 29.7142 322.082 30.2895H322.571V24.0197H322.082C322.114 24.8141 321.83 25.5896 321.29 26.1832C320.661 26.5632 319.92 26.7254 319.186 26.6437H315.144V19.5539H320.19C320.839 19.5209 321.49 19.5847 322.121 19.7431C322.541 19.9102 322.902 20.1955 323.157 20.5631C323.479 21.1716 323.696 21.828 323.801 22.5058H324.322L324.109 18.5573H309.949V19.0556H310.593C310.887 19.0264 311.184 19.0586 311.465 19.1499C311.746 19.2412 312.004 19.3896 312.222 19.5854C312.458 19.8503 312.576 20.5526 312.576 21.6922V33.3739C312.607 33.9585 312.555 34.5445 312.421 35.1148C312.309 35.3912 312.096 35.6163 311.822 35.7456C311.445 35.938 311.025 36.0376 310.6 36.0358H309.956V36.5341H324.116L325.68 32.0367H325.133Z" fill="#121C30"/>
<defs>
<filter id="filter0_b_2398_876" x="-2.91748" y="-2.68521" width="81.9991" height="61.0018" filterUnits="userSpaceOnUse" color-interpolation-filters="sRGB">
<feFlood flood-opacity="0" result="BackgroundImageFix"/>
<feGaussianBlur in="BackgroundImageFix" stdDeviation="2"/>
<feComposite in2="SourceAlpha" operator="in" result="effect1_backgroundBlur_2398_876"/>
<feBlend mode="normal" in="SourceGraphic" in2="effect1_backgroundBlur_2398_876" result="shape"/>
</filter>
</defs>
</svg>
