<svg width="265" height="42" viewBox="0 0 265 42" fill="none" xmlns="http://www.w3.org/2000/svg">
<line x1="265" y1="41.25" x2="-2.18557e-08" y2="41.25" stroke="black" stroke-width="0.5"/>
<path d="M243.09 26.181C244.837 26.181 246.468 25.6128 247.793 24.666L252.78 29.6528C253.012 29.8843 253.317 30 253.632 30C254.316 30 254.811 29.474 254.811 28.8006C254.811 28.485 254.705 28.1904 254.474 27.959L249.519 22.9932C250.56 21.6255 251.181 19.9316 251.181 18.0905C251.181 13.6402 247.541 10 243.09 10C238.63 10 235 13.6402 235 18.0905C235 22.5408 238.63 26.181 243.09 26.181ZM243.09 24.4345C239.608 24.4345 236.746 21.5623 236.746 18.0905C236.746 14.6186 239.608 11.7464 243.09 11.7464C246.562 11.7464 249.435 14.6186 249.435 18.0905C249.435 21.5623 246.562 24.4345 243.09 24.4345Z" fill="#020202"/>
</svg>
